<svg xmlns="http://www.w3.org/2000/svg" xmlns:xlink="http://www.w3.org/1999/xlink" viewBox="0 0 38.95 52.75"><defs><style>.cls-1{fill:#f24338;}.cls-2{fill:#fff;}.cls-3{fill:#93c3fd;}.cls-4{fill:#cc2228;}.cls-5{fill:#181818;}.cls-6{fill:#fdc228;}.cls-7{fill:#fbb990;}.cls-8{fill:#fb9476;}.cls-9{fill:#fa7764;}.cls-10{fill:#1c55d1;}.cls-11{fill:#2a81ea;}.cls-12{opacity:0.4;fill:url(#Degradado_sin_nombre_3);}</style><radialGradient id="Degradado_sin_nombre_3" cx="20.43" cy="10.8" r="1.63" gradientUnits="userSpaceOnUse"><stop offset="0" stop-color="#f24338"/><stop offset="0.18" stop-color="#f24338" stop-opacity="0.8"/><stop offset="0.59" stop-color="#f24338" stop-opacity="0.38"/><stop offset="0.87" stop-color="#f24338" stop-opacity="0.11"/><stop offset="1" stop-color="#f24338" stop-opacity="0"/></radialGradient></defs><title>bg_load</title><g id="OBJECTS"><path class="cls-1" d="M12.34,17.11a1.12,1.12,0,0,1-.72-.35c-.5-.54-1.21-1.77-.19-4,1.89-4.09,8.81-3.48,10.46-.51,1.17,2.11,2.34,2.53,1.71,3.17S15.79,17.39,12.34,17.11Z"/><path class="cls-2" d="M24.53,41.65h0c-1.5.22-3,.42-4.53.54l-.27,0a28.73,28.73,0,0,1-4.82,0c-.52,0-1-.12-1.56-.22a2.17,2.17,0,0,1-1.75-2.46c.18-1.09.29-2.12.37-3.09L12,36c.08-1.14.1-2.18.11-3.13V32c0-.22,0-.43,0-.64v-.06c0-.72,0-1.36,0-1.93v-.08c0-.12,0-.23,0-.35s0-.22,0-.33c0-.31,0-.6,0-.88v-.69c0-.24,0-.46,0-.67s0-.14,0-.21l0-.35c0-.07,0-.14,0-.21v-.26l0-.13A1.94,1.94,0,0,0,12,25c0-.38-.08-.78-.12-1.19,0-.12,0-.25-.05-.38l-.06-.61c0-.13,0-.26-.05-.39A35,35,0,0,1,11.4,18c.13-1,5.13-3.76,5.13-3.76l3-.09s4.21,1.69,5,2.72h0a2.44,2.44,0,0,1,.35,1A9.61,9.61,0,0,1,25,19.14c0,.34,0,.7,0,1.09s-.05.85-.09,1.3l0,.41c0,.14,0,.27,0,.42l0,.27c0,.25,0,.49,0,.75,0,.08,0,.16,0,.24s0,.11,0,.16,0,.11,0,.16h0a.76.76,0,0,1,0,.15.92.92,0,0,1,0,.16c0,.1,0,.2,0,.3s0,.16,0,.24v.05c0,.05,0,.11,0,.16v0h0a1.48,1.48,0,0,1,0,.21v.26a.49.49,0,0,1,0,.12v.69c0,.24,0,.49,0,.75v.33c0,.12,0,.24,0,.36s0,.5,0,.77v.16a2.17,2.17,0,0,1,0,.26c0,.12,0,.25,0,.37l0,.43c0,.2,0,.4,0,.61a.77.77,0,0,1,0,.15l0,.25c0,.06,0,.11,0,.16V31c0,.12,0,.26.06.39v0l0,.21.06.4,0,.12q.06.35.12.72s0,.08,0,.13,0,.19.05.29c.06.34.12.69.19,1s.15.83.24,1.25.13.69.21,1c.16.81.33,1.62.5,2.4A2.15,2.15,0,0,1,24.53,41.65Z"/><path class="cls-3" d="M24.88,17.87a28.1,28.1,0,0,1-5.83.61l-.83,0A24.78,24.78,0,0,1,14.05,18l.12-.52.12-.52h0a22.6,22.6,0,0,0,4,.43,27.73,27.73,0,0,0,6.24-.54h0A2.44,2.44,0,0,1,24.88,17.87Z"/><path class="cls-3" d="M25,19.14c0,.34,0,.7,0,1.09a27.52,27.52,0,0,1-5.75.59L18,20.8a23.2,23.2,0,0,1-4.15-.49l.24-1a23.8,23.8,0,0,0,4,.46A27.07,27.07,0,0,0,25,19.14Z"/><path class="cls-3" d="M24.82,21.53l0,.41c0,.14,0,.27,0,.42l0,.27a27.67,27.67,0,0,1-5.46.54c-.51,0-1,0-1.41,0a23.11,23.11,0,0,1-4.15-.53l.25-1a22.24,22.24,0,0,0,4,.5A26.44,26.44,0,0,0,24.82,21.53Z"/><path class="cls-3" d="M24.65,23.94h0a.76.76,0,0,1,0,.15.92.92,0,0,1,0,.16c0,.1,0,.2,0,.3s0,.16,0,.24v.05c0,.05,0,.11,0,.16v0a27.46,27.46,0,0,1-5.21.48c-.62,0-1.19,0-1.7-.05a22.83,22.83,0,0,1-4.14-.57l.26-1h0s.42.1,1.11.22a26.1,26.1,0,0,0,2.86.32A26.85,26.85,0,0,0,24.65,23.94Z"/><path class="cls-3" d="M24.59,27.07c0-.26,0-.51,0-.75a26.79,26.79,0,0,1-7,.42,22.68,22.68,0,0,1-4-.58l-.14.51-.14.51a23.06,23.06,0,0,0,4.14.62c.59,0,1.26.07,2,.07a27.56,27.56,0,0,0,5.08-.47Zm-10.93-.91-.14.51.14-.51Z"/><path class="cls-3" d="M24.69,29.75a27.23,27.23,0,0,1-5.07.47c-.84,0-1.61,0-2.27-.09a25.65,25.65,0,0,1-4.14-.65l.15-.51.14-.51h0a24.62,24.62,0,0,0,4,.62,26.9,26.9,0,0,0,7.17-.39,2.17,2.17,0,0,1,0,.26c0,.12,0,.25,0,.37Z"/><path class="cls-3" d="M25,32.07a26.65,26.65,0,0,1-5.23.51c-1,0-1.83,0-2.57-.12a23.6,23.6,0,0,1-4.12-.69l.29-1h0a22.73,22.73,0,0,0,3.95.66A26.68,26.68,0,0,0,24.82,31c0,.12,0,.26.06.39v0l0,.21Z"/><path class="cls-3" d="M25.37,34.37a26.14,26.14,0,0,1-5.52.57c-1.07,0-2-.06-2.85-.14a23.84,23.84,0,0,1-4.12-.74l.3-1a24.93,24.93,0,0,0,3.95.7,26.62,26.62,0,0,0,8.05-.42C25.24,33.67,25.3,34,25.37,34.37Z"/><path class="cls-3" d="M25.82,36.66A26.39,26.39,0,0,1,20,37.3a28.28,28.28,0,0,1-3.14-.17,23.84,23.84,0,0,1-4.11-.78l.16-.5.16-.51h0a23,23,0,0,0,3.94.74,26.37,26.37,0,0,0,8.64-.46C25.67,36,25.74,36.31,25.82,36.66Z"/><path class="cls-1" d="M17.75,40.23c.1-4.37-.65-9.45-.64-13.81,0-3.92.29-7.8.29-11.72a5,5,0,0,0-1.34.23,12.47,12.47,0,0,1-3.8,1.71c-2.74.89-2.23,11-2.06,16.68s.1,9.25,5.49,9.94c.5.07,1,.12,1.49.17C17.18,42.14,17.72,41.52,17.75,40.23Z"/><path class="cls-4" d="M11.91,28.72a.14.14,0,0,1-.13-.1.13.13,0,0,1,.1-.15,3.2,3.2,0,0,0,2.24-2.32.14.14,0,0,1,.16-.09.13.13,0,0,1,.08.16,3.46,3.46,0,0,1-2.43,2.5Z"/><path class="cls-4" d="M16.61,39.37a.1.1,0,0,1-.1-.1,182.35,182.35,0,0,1-.24-23,.1.1,0,0,1,.19,0,182.08,182.08,0,0,0,.25,23,.11.11,0,0,1-.1.11Z"/><path class="cls-1" d="M27.1,20.6c.13-4-1.81-5.09-5.69-5.67h0a12.26,12.26,0,0,0,0,2c.07,1.06.19,2.12.24,3.18.17,4.45.61,7.47.25,13.3-.27,4.39.43,6.69.56,10a6.51,6.51,0,0,0,5-3C29.42,37,27,24.64,27.1,20.6Z"/><path class="cls-4" d="M26.64,28.58h0s-2.6-.64-3-4.39a.12.12,0,0,1,.11-.14.14.14,0,0,1,.14.11c.41,3.58,2.82,4.17,2.84,4.17a.13.13,0,0,1,0,.25Z"/><path class="cls-4" d="M22.71,38.65a.1.1,0,0,1-.09-.08,56.68,56.68,0,0,1-.05-6.93c.05-2.18.1-4.23,0-5.47-.19-4.2-.76-10.06-.77-10.12a.1.1,0,0,1,.09-.1A.09.09,0,0,1,22,16c0,.06.58,5.93.77,10.13.06,1.24,0,3.3,0,5.48a58.56,58.56,0,0,0,0,6.89.1.1,0,0,1-.08.12Z"/><path class="cls-5" d="M19.19,5.68l-1.91.69S16.71,7.16,16,7a1.69,1.69,0,0,1-1-.77c-1.16-1.69,1.64-4,3.32-3.63.83.19,1.05.94,1.07,1.65A5.41,5.41,0,0,1,19.19,5.68Z"/><path class="cls-6" d="M19.19,5.68l-1.91.69S16.71,7.16,16,7c0-.88,1.23-2.47,3.43-2.75A5.41,5.41,0,0,1,19.19,5.68Z"/><path class="cls-6" d="M19.32,4.68a.11.11,0,0,1-.1-.06c-.09-.16-.89-1.62-.59-2.25A.49.49,0,0,1,19,2.09a.54.54,0,0,1,.55.15c.47.53-.05,2.17-.11,2.36a.13.13,0,0,1-.11.08Zm-.16-2.37h-.11a.28.28,0,0,0-.21.15c-.17.37.19,1.25.45,1.78.16-.58.35-1.55.08-1.85A.26.26,0,0,0,19.16,2.31Z"/><path class="cls-6" d="M19.35,4.69a.09.09,0,0,1-.08,0,.14.14,0,0,1,0-.13c.08-.18.76-1.76,1.46-1.86a.54.54,0,0,1,.52.25.49.49,0,0,1,.09.46c-.19.67-1.74,1.25-1.91,1.31ZM20.77,2.9h0c-.4.05-.89.91-1.15,1.45.54-.22,1.39-.66,1.5-1a.23.23,0,0,0,0-.24A.33.33,0,0,0,20.77,2.9Z"/><path class="cls-5" d="M15.82,7.25a1.52,1.52,0,0,1-1.18-.9c-.69-1.45,1-2.67,1-2.68a.07.07,0,0,1,.11,0,.07.07,0,0,1,0,.1S14.14,5,14.78,6.28A1.53,1.53,0,0,0,16.66,7a.06.06,0,0,1,.09,0s0,.08-.05.1A2.08,2.08,0,0,1,15.82,7.25Z"/><path class="cls-5" d="M21.34,7.42s.74,3.13-.29,5.15-2.07,2.57-.59,3.2,3.17-.57,4.31.05c1.36.75-.17-5.55-.85-8.22s-4-3-4-3Z"/><path class="cls-5" d="M23.31,9.67s1.33-3-1.17-4.48-5-.35-5.68,1.3a2.61,2.61,0,0,0,.36,2.74Z"/><path class="cls-7" d="M19,16.1a1,1,0,0,0,1.23-.36l.15-1.29.09-.75,0-.11-.33,0-2.44-.7-.33,1.55-.16.73A3.64,3.64,0,0,0,19,16.1Z"/><path class="cls-5" d="M20.41,14.45a5.25,5.25,0,0,1-3,0h0l.34-1.54,2.44.7.33,0,0,.11Z"/><path class="cls-8" d="M22.4,9.69s1.45-.42,1.17.86a1.13,1.13,0,0,1-1.67.91Z"/><path class="cls-2" d="M21.36,12a1,1,0,1,0,1.34-.77h0c-.07,0-.08.07-.09.13a.82.82,0,1,1-1.09.65.79.79,0,0,1,.28-.5l.12-.09a.43.43,0,0,1-.11-.12l-.11.09A.93.93,0,0,0,21.36,12Z"/><path class="cls-9" d="M22.57,11.05h0A.08.08,0,0,1,22.5,11a1.3,1.3,0,0,1,.64-.85s.09,0,.1,0a.08.08,0,0,1,0,.11,1.1,1.1,0,0,0-.55.74A.08.08,0,0,1,22.57,11.05Z"/><path class="cls-9" d="M23.08,10.78a.05.05,0,0,1,0,0,.31.31,0,0,0-.24-.16.08.08,0,1,1,0-.16.47.47,0,0,1,.37.24.07.07,0,0,1,0,.1A.07.07,0,0,1,23.08,10.78Z"/><path class="cls-7" d="M23.2,9.51A8.58,8.58,0,0,1,22.8,11c-.08.21-.17.41-.26.61C21.9,13,21,14,20.25,14.05a3,3,0,0,1-3.12-1.94,3.42,3.42,0,0,1-.27-.9c0-.05,0-.1,0-.15a16.1,16.1,0,0,1,.21-3.82c.95-1.42,3-1,4.18-.84S23.61,7.18,23.2,9.51Z"/><path class="cls-8" d="M19.93,13.24a.92.92,0,0,1-.4-.16.08.08,0,0,1,0-.11.08.08,0,0,1,.11,0,.79.79,0,0,0,.36.12.93.93,0,0,0,.38,0,.07.07,0,0,1,.1,0s0,.08-.05.1a1.15,1.15,0,0,1-.45,0Z"/><path class="cls-10" d="M15.52,28.33a.13.13,0,0,1-.12-.08,9.8,9.8,0,0,1-.29-1.15A.12.12,0,0,1,15.2,27a.12.12,0,0,1,.14.09,10.05,10.05,0,0,0,.29,1.12.12.12,0,0,1-.08.15Z"/><path class="cls-10" d="M16.15,28.11A.12.12,0,0,1,16,28a11.71,11.71,0,0,1-.31-1.14.12.12,0,0,1,.09-.14.13.13,0,0,1,.15.09,8.9,8.9,0,0,0,.3,1.12.12.12,0,0,1-.08.15Z"/><path class="cls-10" d="M16.79,27.9a.12.12,0,0,1-.11-.08,8.25,8.25,0,0,1-.32-1.14.11.11,0,0,1,.09-.14.13.13,0,0,1,.14.09,10,10,0,0,0,.31,1.11.11.11,0,0,1-.07.15Z"/><path class="cls-10" d="M17.43,27.69a.12.12,0,0,1-.11-.08c-.19-.52-.33-1.11-.34-1.13a.12.12,0,0,1,.09-.15.12.12,0,0,1,.14.09s.15.6.33,1.1a.12.12,0,0,1-.07.16Z"/><path class="cls-10" d="M18.07,27.47A.12.12,0,0,1,18,27.4c-.2-.52-.35-1.11-.36-1.13a.13.13,0,0,1,.09-.15.12.12,0,0,1,.14.09s.16.6.35,1.1a.12.12,0,0,1-.07.15Z"/><path class="cls-10" d="M18.71,27.26a.11.11,0,0,1-.11-.08,9,9,0,0,1-.37-1.12.12.12,0,0,1,.08-.15.13.13,0,0,1,.15.09s.16.59.36,1.09a.14.14,0,0,1-.07.16Z"/><path class="cls-10" d="M19.35,27a.12.12,0,0,1-.12-.07c-.21-.51-.37-1.09-.38-1.12a.12.12,0,0,1,.08-.15.13.13,0,0,1,.15.09s.17.59.38,1.09a.12.12,0,0,1-.07.15Z"/><path class="cls-11" d="M22.78,14.3a3.66,3.66,0,0,1-.18.92,2,2,0,0,1-.1.21h0a2,2,0,0,1-.81.92,5.41,5.41,0,0,1-4-.18h0L17.27,16l-.33-.19a2.85,2.85,0,0,1-1.43-2.12c0-.06,0-.13,0-.19a4.33,4.33,0,0,1,.15-1.41l0-.07a4.48,4.48,0,0,1,.23-.63A5.23,5.23,0,0,1,17,11.07a3.43,3.43,0,0,1,.79,0,2.24,2.24,0,0,1,.91.21c2.07.94,3.12,1.36,3.73.55,0,0,.1.3.2.76a1.77,1.77,0,0,0,0,.2c0,.19.06.41.08.63A4.71,4.71,0,0,1,22.78,14.3Z"/><path class="cls-10" d="M22.69,12.75a1.13,1.13,0,0,1-.1.13,2.07,2.07,0,0,1-1.73.71h-.18a5.38,5.38,0,0,1-2.35-.8,3.79,3.79,0,0,0-2.68-.64v-.07l0-.06h0a3.91,3.91,0,0,1,2.73.66,5.37,5.37,0,0,0,2.3.78,2,2,0,0,0,1.79-.65,1.84,1.84,0,0,0,.17-.25A1.77,1.77,0,0,0,22.69,12.75Z"/><path class="cls-10" d="M22.6,15.22a2,2,0,0,1-.1.21h0a3.42,3.42,0,0,1-1.24.41,6.09,6.09,0,0,1-.88.06,9.08,9.08,0,0,1-1.33-.1,14.66,14.66,0,0,1-2.64-.67l.05-.13a13.57,13.57,0,0,0,2.61.67A5.34,5.34,0,0,0,22.6,15.22Z"/><path class="cls-11" d="M19.32,26.16l-4.21,1.37s0-.25-.14-.66l-.06-.31c-.06-.29-.13-.65-.2-1a2.87,2.87,0,0,1-.05-.31c-.06-.32-.12-.68-.18-1.05,0-.1,0-.2-.05-.31l-.15-1.05c0-.11,0-.21,0-.32,0-.36-.08-.72-.11-1.07l0-.32c0-.37,0-.74-.06-1.09v-.33a10.19,10.19,0,0,1,0-1.12q0-.18,0-.33l0-.23a7.36,7.36,0,0,1,.23-.95l.12-.34a3.75,3.75,0,0,1,2.31-2.34,2.22,2.22,0,0,1,1.63,1.32,2.15,2.15,0,0,0-.53.91c0,.1-.06.2-.08.3a6.22,6.22,0,0,0-.12.92c0,.1,0,.2,0,.31,0,.3,0,.62,0,.95,0,.1,0,.21,0,.31q0,.48.12,1c0,.11,0,.21,0,.31.05.32.11.65.18,1l.06.3c.07.33.15.65.22,1,0,.1.05.2.08.3.08.33.17.65.25.95,0,.1.06.2.08.29l.28.93.1.29C19.25,26,19.32,26.16,19.32,26.16Z"/><path class="cls-10" d="M17.89,16.59c0,.1-.06.2-.08.3a10.26,10.26,0,0,0-3.45.15l.12-.34a9.38,9.38,0,0,1,1.86-.2A10.66,10.66,0,0,1,17.89,16.59Z"/><path class="cls-10" d="M17.69,17.81c0,.1,0,.2,0,.31a10.35,10.35,0,0,0-3.61.43q0-.18,0-.33a9.55,9.55,0,0,1,2.45-.41A10.78,10.78,0,0,1,17.69,17.81Z"/><path class="cls-10" d="M17.73,19.38A11.92,11.92,0,0,0,14,20v-.33a11,11,0,0,1,2.72-.55c.35,0,.67,0,.95-.05C17.72,19.17,17.73,19.28,17.73,19.38Z"/><path class="cls-10" d="M17.9,20.65a13.59,13.59,0,0,0-3.77.76l0-.32a13.85,13.85,0,0,1,3.75-.75C17.87,20.45,17.88,20.55,17.9,20.65Z"/><path class="cls-10" d="M18.14,21.92a16.4,16.4,0,0,0-3.86.88c0-.11,0-.21,0-.32a16.62,16.62,0,0,1,3.84-.86Z"/><path class="cls-10" d="M18.44,23.18a21.78,21.78,0,0,0-4,1c0-.1,0-.2-.05-.31a22.26,22.26,0,0,1,3.93-1C18.39,23,18.41,23.08,18.44,23.18Z"/><path class="cls-10" d="M18.77,24.42a30.3,30.3,0,0,0-4.06,1.1,2.87,2.87,0,0,1-.05-.31,30.3,30.3,0,0,1,4-1.08C18.72,24.23,18.75,24.33,18.77,24.42Z"/><path class="cls-10" d="M19.15,25.64c-1,.24-2.65.69-4.18,1.23l-.06-.31c1.52-.52,3.19-1,4.14-1.21Z"/><path class="cls-10" d="M17.65,16.17h-.1a.56.56,0,0,1-.28-.17c-.72-.78-.91-3.86-.91-3.86A4,4,0,0,1,17,11.07a3.43,3.43,0,0,1,.79,0A16.33,16.33,0,0,0,18.29,14C18.55,14.53,18.51,16.22,17.65,16.17Z"/><path class="cls-10" d="M22.78,14.3c-1.05.82-3.36.35-5.46-.27a9.11,9.11,0,0,0-1.81-.35c0-.06,0-.13,0-.19a24,24,0,0,1,3.66.66c2.25.51,3.28-.36,3.62-.77A4.71,4.71,0,0,1,22.78,14.3Z"/><path class="cls-5" d="M21.26,10.13c0,.23,0,.42.16.44s.25-.14.29-.37a.64.64,0,0,0,0-.24A.31.31,0,0,0,22,9.88a1.13,1.13,0,0,1-.42-.1h-.05C21.42,9.75,21.29,9.91,21.26,10.13Z"/><path class="cls-5" d="M21.55,9.77h0Z"/><path class="cls-8" d="M22.8,11c-.08.21-.17.41-.26.61l-.31,0c-.5-.07-.87-.29-.85-.48s.45-.3.95-.23A1.71,1.71,0,0,1,22.8,11Z"/><path class="cls-8" d="M19.18,10.7c0,.2-.46.3-1,.23s-.88-.29-.85-.49.46-.3,1-.23S19.2,10.5,19.18,10.7Z"/><path class="cls-7" d="M17.12,9.44A.49.49,0,0,0,16.91,9c-.38-.28-.89-.43-1.14.07-.47.93.38,2.18,1.12,2Z"/><path class="cls-8" d="M17.27,11l0,0a.38.38,0,0,1-.13.09.82.82,0,0,1-.24.1c0-.05,0-.1,0-.15L17,11l.14-.09.05,0a.06.06,0,0,1,.09,0A.09.09,0,0,1,17.27,11Z"/><path class="cls-8" d="M16.56,10.4a.08.08,0,0,1-.07-.08,1.27,1.27,0,0,0-.38-1,.08.08,0,1,1,.1-.12,1.4,1.4,0,0,1,.44,1.09.08.08,0,0,1-.08.08Z"/><path class="cls-8" d="M16.06,10s0,0,0,0a.08.08,0,0,1,0-.11.56.56,0,0,1,.48-.13.08.08,0,0,1,.05.1.07.07,0,0,1-.09.05.45.45,0,0,0-.34.1Z"/><path class="cls-8" d="M20.29,11.37a.09.09,0,0,1-.07-.06.11.11,0,0,1,.05-.09,1.44,1.44,0,0,0,.41-.26c0-.14-.13-.71-.17-.92a.08.08,0,0,1,.06-.09h0a.07.07,0,0,1,.09.06c0,.22.16.82.18.94s0,.16-.51.41Zm.39-.4Z"/><path class="cls-5" d="M19.29,9.84c0,.22-.16.39-.28.37s-.2-.21-.17-.44a.53.53,0,0,1,.08-.22.32.32,0,0,1-.28-.18,1.35,1.35,0,0,0,.43,0h.05C19.25,9.42,19.32,9.62,19.29,9.84Z"/><path class="cls-5" d="M19.12,9.4h0Z"/><path class="cls-5" d="M22.39,9.78a1.2,1.2,0,0,0-.16-.27A1.61,1.61,0,0,0,22,9.28a1.1,1.1,0,0,0-.25-.17,1.25,1.25,0,0,0-.27-.1h0a.17.17,0,0,1-.13-.22.19.19,0,0,1,.22-.14l0,0a1.5,1.5,0,0,1,.32.19,1.52,1.52,0,0,1,.25.26,1.66,1.66,0,0,1,.19.3,1.85,1.85,0,0,1,.12.33s0,.05,0,.06a.05.05,0,0,1-.05,0Z"/><path class="cls-5" d="M18.16,9.1a1.8,1.8,0,0,1,.26-.29,2.43,2.43,0,0,1,.32-.24,1.61,1.61,0,0,1,.38-.16,1.85,1.85,0,0,1,.41-.07.18.18,0,0,1,.2.17.19.19,0,0,1-.17.2h0a1.93,1.93,0,0,0-.34,0,1.35,1.35,0,0,0-.33.09,2,2,0,0,0-.33.15,1.56,1.56,0,0,0-.28.23h0a0,0,0,0,1-.07-.07Z"/><path class="cls-5" d="M18.07,7.07A5.82,5.82,0,0,0,22.93,9c1.84-.05.25-2.92-2.49-3.08S18.07,7.07,18.07,7.07Z"/><path class="cls-5" d="M22.94,8.65A5.67,5.67,0,0,1,22.8,11a4.3,4.3,0,0,0,.45-2.22C23.05,7.9,22.94,8.65,22.94,8.65Z"/><path class="cls-5" d="M19,7.07s-1.62,2.77-1.23,5,1,4-.62,4.18-2.64-.46-4.06.1h0l0,0-.1,0c-.25,0-.3-.29-.2-.84,0-.19.08-.41.14-.66a35.24,35.24,0,0,1,1.59-4.31C15,9.38,15.54,8.19,16,7.32c.17-.32.33-.6.46-.83,1.47-2.4,4.74-1.73,4.74-1.73Z"/><path class="cls-5" d="M16.1,7.42S15.26,9,14.46,10.6A20.29,20.29,0,0,0,13,14.07a6,6,0,0,0-.13.84,3.05,3.05,0,0,0,.2,1.45l0,0-.1,0a2.29,2.29,0,0,1-.2-.84A4.92,4.92,0,0,1,12.85,14c.37-1.64,3-6.48,3.12-6.68a0,0,0,0,1,0,0,.09.09,0,0,1,.07,0A.07.07,0,0,1,16.1,7.42Z"/><path class="cls-12" d="M20.91,9a1.78,1.78,0,0,0-2.27,1.41A2,2,0,0,0,21,13C22.09,12.76,22.82,9.29,20.91,9Z"/><path class="cls-2" d="M19.14,11.32A1.37,1.37,0,1,1,20.51,10,1.36,1.36,0,0,1,19.14,11.32Zm0-2.56a1.2,1.2,0,1,0,1.2,1.2A1.2,1.2,0,0,0,19.14,8.76Z"/><path class="cls-2" d="M22.17,11.94a1.37,1.37,0,1,1,1.37-1.37A1.38,1.38,0,0,1,22.17,11.94Zm0-2.57a1.2,1.2,0,1,0,1.2,1.2A1.2,1.2,0,0,0,22.17,9.37Z"/><path class="cls-2" d="M20.88,10.22a.36.36,0,0,0-.42-.13l-.06-.15a.52.52,0,0,1,.62.19Z"/><path class="cls-10" d="M23.05,41.58c-.38.27-.9,1.09-1.8,1.38-5.14,1.63-9.93-1.54-9.93-1.54a5.23,5.23,0,0,1,.36-3.59.5.5,0,0,1,0-.45l-2.26-4.2c.06,0,3.55,2.25,6.14,3.81h0c.74.45,1.41.85,1.91,1.12a4.18,4.18,0,0,0,2.64.34,12.65,12.65,0,0,0,3.58-1.16S28,34.72,29.12,34.8C30,34.87,26.87,39.61,23.05,41.58Z"/><path class="cls-2" d="M13.38,45.82l-.73.15-.42.08-.66.15-.43.09A21.58,21.58,0,0,0,6,47.94l-.2.12c-1.46,1-1.76,1.84-2,1.66s-.35-.91.12-1.4c.32-.33.54-.82,1-1.35.12-.14.25-.29.4-.44.67-.64,1.75-1.31,2.35-1.83l.11-.09c.49-.46.68-1.4,1.59-1.68a2.65,2.65,0,0,1,1.47,0l.27.07.39.14.49.21.38.19c.27.14.44.25.44.25Z"/><path class="cls-3" d="M10.78,43c-.53.69-1.76,2-3.17,1.72l.11-.09c.49-.46.68-1.4,1.59-1.68A2.65,2.65,0,0,1,10.78,43Z"/><path class="cls-3" d="M5.8,48.06c-1.46,1-1.76,1.84-2,1.66s-.35-.91.12-1.4c.32-.33.54-.82,1-1.35A2.65,2.65,0,0,1,5.8,48.06Z"/><path class="cls-3" d="M12.65,46l-.42.08a3.56,3.56,0,0,1-.39-1.75,4.55,4.55,0,0,1,.09-.9l.38.19a7,7,0,0,0-.06.72A3.16,3.16,0,0,0,12.65,46Z"/><path class="cls-3" d="M11.44,43.19l-.39-.14a5.78,5.78,0,0,0-.26,1.17,3.38,3.38,0,0,0,.35,2.07l.43-.09A3.67,3.67,0,0,1,11.44,43.19Z"/><path class="cls-11" d="M35,38.21C33,40.56,28.71,43,24.07,44.37c-1.61.49-3,.85-4.17,1.12-.93.22-1.73.38-2.42.49a12,12,0,0,1-3.64.26s-1.65-.53-.94-3.19a30.15,30.15,0,0,0,5.53-1.91,11.43,11.43,0,0,0,1.35-.79l.28-.2c2.25-1.64,4.16-3.88,9.22-5.89,0,0,2.64-1.61,4.77-.89a3.09,3.09,0,0,1,.89.48C36.48,35.06,36.27,36.62,35,38.21Z"/><path class="cls-10" d="M25.53,43.65l-1,.14-6.09-2.65a11.43,11.43,0,0,0,1.35-.79l.28-.2Z"/><path class="cls-10" d="M19.9,45.49c-.93.22-1.73.38-2.42.49a38.91,38.91,0,0,1-4.27-1.51l.16-1.2Z"/><path class="cls-10" d="M35,38.21a4.88,4.88,0,0,1-.92-4.84,3.09,3.09,0,0,1,.89.48C36.48,35.06,36.27,36.62,35,38.21Z"/><path class="cls-10" d="M13.16,43.84a46.61,46.61,0,0,0,8.92-3.64c3-1.47,6.39-3.36,6.91-4,.28-.37.36-.68.24-.92s-.76-.42-1-.43a.12.12,0,0,0-.12.12h0a.11.11,0,0,0,.11.12c.26,0,.71.07.82.3s-.06.47-.21.67c-.42.55-3.3,2.22-6.83,4a49.25,49.25,0,0,1-8.86,3.62Z"/><path class="cls-10" d="M13.51,42.71a7.16,7.16,0,0,0,1.19,3.75,1.31,1.31,0,0,1-1.31.09,4.77,4.77,0,0,1-.9-3.71A1.15,1.15,0,0,1,13.51,42.71Z"/><path class="cls-2" d="M24.68,46.4l.71.19.42.11.65.19.42.12a21.81,21.81,0,0,1,5,2l.19.14c1.39,1.08,1.64,1.94,1.92,1.79s.4-.89,0-1.41c-.3-.35-.49-.85-.89-1.41a4.66,4.66,0,0,0-.37-.46c-.63-.69-1.65-1.43-2.22-2l-.1-.11c-.47-.48-.6-1.43-1.48-1.78a2.83,2.83,0,0,0-1.48,0l-.27.06-.4.11-.5.18-.39.16c-.28.12-.46.22-.46.22Z"/><path class="cls-3" d="M27.45,43.73c.49.73,1.63,2.14,3.06,1.93l-.1-.11c-.47-.48-.6-1.43-1.48-1.78A2.83,2.83,0,0,0,27.45,43.73Z"/><path class="cls-3" d="M32.09,49.13c1.39,1.08,1.64,1.94,1.92,1.79s.4-.89,0-1.41c-.3-.35-.49-.85-.89-1.41A2.63,2.63,0,0,0,32.09,49.13Z"/><path class="cls-3" d="M25.39,46.59l.42.11a3.52,3.52,0,0,0,.5-1.72,5,5,0,0,0,0-.9l-.39.16a5.59,5.59,0,0,1,0,.72A3.15,3.15,0,0,1,25.39,46.59Z"/><path class="cls-3" d="M26.46,46.89l.42.12a3.41,3.41,0,0,0,.49-2,5.89,5.89,0,0,0-.19-1.18l-.4.11A3.66,3.66,0,0,1,26.46,46.89Z"/><path class="cls-11" d="M25.19,43.7c.53,2.71-1.14,3.12-1.14,3.12s-2.5.31-10.09-2.53c-4.38-1.64-8.42-4.21-10.29-6.61-1.37-1.76-1.57-3.44.13-4.61a3.17,3.17,0,0,1,1.29-.49,8.47,8.47,0,0,1,4.58,1.08c5.12,2.45,3.84,3.28,8.1,6C20.21,41.22,25.19,43.7,25.19,43.7Z"/><path class="cls-10" d="M5.09,32.58c.08.92.22,4-1.42,5.1-1.37-1.76-1.57-3.44.13-4.61A3.17,3.17,0,0,1,5.09,32.58Z"/><path class="cls-10" d="M24.88,44.47a46.52,46.52,0,0,1-8.67-4.21c-2.86-1.66-6.15-3.77-6.63-4.49-.26-.39-.31-.7-.18-.93s.79-.37,1-.36a.11.11,0,0,1,.11.13h0a.12.12,0,0,1-.12.1c-.26,0-.7,0-.84.25s0,.47.18.68c.38.58,3.13,2.44,6.55,4.42a49.4,49.4,0,0,0,8.6,4.19Z"/><path class="cls-10" d="M24.6,43.32A7.19,7.19,0,0,1,23.17,47a1.31,1.31,0,0,0,1.3.17,4.77,4.77,0,0,0,1.14-3.65A1.17,1.17,0,0,0,24.6,43.32Z"/><path class="cls-1" d="M32.26,32.53a7.66,7.66,0,0,1-2,1.55c-1.5,1-4.53,1.63-4.3-1.81s2.83-2.05.92-8.09a55.3,55.3,0,0,1-1.38-7.9s4.27,3,6.81,10.39c.19.58.34,1.1.45,1.58C33.28,30.44,32.91,31.7,32.26,32.53Z"/><path class="cls-4" d="M32.26,32.53a4,4,0,0,1,.53-4.28C33.28,30.44,32.91,31.7,32.26,32.53Z"/><path class="cls-4" d="M26,32.88a.1.1,0,0,1-.1-.08A3.49,3.49,0,0,1,26,31.14a5.15,5.15,0,0,1,2.75-3,.11.11,0,0,1,.14,0,.1.1,0,0,1,0,.14,5,5,0,0,0-2.65,2.88,3.42,3.42,0,0,0-.14,1.57.1.1,0,0,1-.08.12Z"/><path class="cls-4" d="M27.54,29.13h-.05a.1.1,0,0,1-.06-.13A11.87,11.87,0,0,1,28,27.57a.11.11,0,0,1,.14-.05.1.1,0,0,1,0,.14,14.85,14.85,0,0,0-.54,1.4A.09.09,0,0,1,27.54,29.13Z"/><path class="cls-4" d="M27.65,28.68a.09.09,0,0,1-.1-.1c0-2-2.69-6.57-2.72-6.62a.1.1,0,0,1,0-.14.1.1,0,0,1,.14,0c.11.19,2.74,4.65,2.74,6.72A.09.09,0,0,1,27.65,28.68Z"/><path class="cls-4" d="M25.75,23.51l-.06,0a5.41,5.41,0,0,0-1.24-.5.1.1,0,0,1-.08-.12.1.1,0,0,1,.13-.07,5,5,0,0,1,1.31.52.12.12,0,0,1,0,.15A.12.12,0,0,1,25.75,23.51Z"/><path class="cls-7" d="M24.49,37.89c0,.18,0,.37.06.52s.1.45.25.18a1,1,0,0,0,.08-.23c.12-.54.08-1.47.14-1.68a7.09,7.09,0,0,1,.36-.92,3.1,3.1,0,0,0-.15.67c0,.24,0,.52,0,1.1a4.75,4.75,0,0,0,0,.69h0c0,.25.12.37.27.2a.89.89,0,0,0,.14-.4c.08-.45.05-1.08.09-1.29a4.1,4.1,0,0,1,.3-.75,2,2,0,0,0-.13.63,4.86,4.86,0,0,0,0,1.27c0,.14.08.2.16.13a1.12,1.12,0,0,0,.3-.48,2.72,2.72,0,0,0,.14-.7,1.83,1.83,0,0,1,.23-.73,4.64,4.64,0,0,0-.13,1.2c0,.17.09.23.21.1A4.73,4.73,0,0,0,27.36,36v-.06l0-.06h0a6.06,6.06,0,0,1,.21-.76,1.2,1.2,0,0,1,.71-.78c.86-.32.59-2-.61-2a1.38,1.38,0,0,0-1,.31l-.67.52h0A8.45,8.45,0,0,0,25,34.7a11.8,11.8,0,0,0-.51,1.86A5.59,5.59,0,0,0,24.49,37.89Z"/><path class="cls-1" d="M5.63,33.48A7.89,7.89,0,0,0,7.6,35c1.49,1,4.53,1.63,4.3-1.81s-2.83-2-.92-8.09a55.3,55.3,0,0,0,1.38-7.9s-4.28,3-6.81,10.39c-.19.58-.34,1.1-.45,1.58C4.61,31.39,5,32.64,5.63,33.48Z"/><path class="cls-4" d="M5.63,33.48A4,4,0,0,0,5.1,29.2C4.61,31.39,5,32.64,5.63,33.48Z"/><path class="cls-4" d="M11.91,33.83a.11.11,0,0,0,.1-.08,3.65,3.65,0,0,0-.14-1.66,5.14,5.14,0,0,0-2.76-3,.09.09,0,0,0-.13,0,.1.1,0,0,0,0,.14,5,5,0,0,1,2.65,2.88,3.42,3.42,0,0,1,.14,1.57.1.1,0,0,0,.08.12Z"/><path class="cls-4" d="M10.35,30.08h.05a.1.1,0,0,0,.06-.13,11.87,11.87,0,0,0-.55-1.43.11.11,0,1,0-.19.09,9.86,9.86,0,0,1,.55,1.4A.08.08,0,0,0,10.35,30.08Z"/><path class="cls-4" d="M10.24,29.63a.1.1,0,0,0,.1-.1c0-2,2.69-6.57,2.72-6.62a.1.1,0,1,0-.18-.1c-.11.18-2.75,4.65-2.75,6.72A.1.1,0,0,0,10.24,29.63Z"/><path class="cls-4" d="M12.14,24.46l.06,0a5.41,5.41,0,0,1,1.24-.5.1.1,0,0,0,0-.19,4.7,4.7,0,0,0-1.31.52.12.12,0,0,0,0,.15A.12.12,0,0,0,12.14,24.46Z"/><path class="cls-7" d="M13.4,38.84c0,.18,0,.37-.06.52s-.11.45-.25.18A1.12,1.12,0,0,1,13,39.3c-.12-.53-.08-1.46-.14-1.67s-.34-.89-.36-.93a4.34,4.34,0,0,1,.15.68c0,.24,0,.52,0,1.09a4.9,4.9,0,0,1,0,.7h0c0,.25-.12.37-.27.2a.89.89,0,0,1-.14-.4c-.08-.45-.06-1.08-.1-1.29a3.61,3.61,0,0,0-.29-.75,2.76,2.76,0,0,1,.13.63,5.33,5.33,0,0,1,0,1.27c0,.14-.08.2-.17.13a1.11,1.11,0,0,1-.29-.48,2.81,2.81,0,0,1-.14-.7,1.83,1.83,0,0,0-.23-.73,4.54,4.54,0,0,1,.12,1.2c0,.17-.08.23-.2.1a4.76,4.76,0,0,1-.55-1.41v-.06l0-.07h0c-.06-.26-.13-.52-.21-.76a1.22,1.22,0,0,0-.71-.78c-.86-.32-.59-2,.61-2.05a1.38,1.38,0,0,1,1,.31l.67.52h0a9,9,0,0,1,1,1.6,11.52,11.52,0,0,1,.51,1.86A6.92,6.92,0,0,1,13.4,38.84Z"/></g></svg>